<svg width="64" height="64" viewBox="0 0 64 64" fill="none" xmlns="http://www.w3.org/2000/svg">
  <path d="M32 4C29.2386 4 27 6.23858 27 9C27 11.2091 28.7909 13 31 13C33.2091 13 35 14.7909 35 17C35 18.3496 34.1827 19.5312 33 20.118L6.882 33.882C4.9508 34.8827 4.19388 37.2883 5.19459 39.2195C6.1953 41.1507 8.60087 41.9076 10.532 40.9069L32 30.0591L53.468 40.9069C55.3991 41.9076 57.8047 41.1507 58.8054 39.2195C59.8061 37.2883 59.0492 34.8827 57.118 33.882L31 20.118C32.8173 19.5312 34 17.895 34 16C34 12.6863 31.3137 10 28 10C26.8954 10 26 9.10457 26 8C26 6.89543 26.8954 6 28 6H32Z" fill="#3A3A3A"></path>
</svg>
